PathFileType	4	(X/Y/Z)	20_1_12_p1_0-441_filt_butterworth.trc
DataRate	CameraRate	NumFrames	NumMarkers	Units	OrigDataRate	OrigDataStartFrame	OrigNumFrames
57.0	57.0	7	27	m	57.0	385	441
Frame#	Time	RHip			RKnee			RAnkle			RBigToe			RSmallToe			RHeel			LHip			LKnee			LAnkle			LBigToe			LSmallToe			LHeel			Neck			Head			Nose			RShoulder			RElbow			RWrist			RThumb			RIndex			RPinky			LShoulder			LElbow			LWrist			LThumb			LIndex			LPinky			
		X1	Y1	Z1	X2	Y2	Z2	X3	Y3	Z3	X4	Y4	Z4	X5	Y5	Z5	X6	Y6	Z6	X7	Y7	Z7	X8	Y8	Z8	X9	Y9	Z9	X10	Y10	Z10	X11	Y11	Z11	X12	Y12	Z12	X13	Y13	Z13	X14	Y14	Z14	X15	Y15	Z15	X16	Y16	Z16	X17	Y17	Z17	X18	Y18	Z18	X19	Y19	Z19	X20	Y20	Z20	X21	Y21	Z21	X22	Y22	Z22	X23	Y23	Z23	X24	Y24	Z24	X25	Y25	Z25	X26	Y26	Z26	X27	Y27	Z27	
385	6.754385964912281	0.3460617490778297	0.5709483736281648	0.9466108825048027	0.3560271204901544	0.7079287090584061	1.346697634198424	0.35562259970826066	0.831319891369824	1.7468637757651286	0.31941914218093326	0.6430598809414663	1.8027390639322967	0.38330435531296264	0.671684976989511	1.807807636177331	0.3310885027941874	0.9347409281165535	1.8009868262789168	0.15359603138103184	0.5725385093705128	0.9462873030566177	0.14563858523473766	0.720409041697923	1.3154814609329675	0.1407492587566021	0.825499530207517	1.692690832834947	0.14323696891791834	0.6366536823590243	1.7892296665866383	0.09247678719624104	0.6977299446735181	1.7885530210776408	0.15306233991929444	0.8895370865121456	1.7438621432018697	0.25757126392576335	0.46076217404423736	0.4370156355010073	0.2712291776747766	0.3540896623864468	0.20936597916449795	0.2550007969594548	0.3323283940044809	0.33646991540363613	0.3991661624946032	0.4514223492416873	0.5269491163482649	0.41240781038526914	0.4783826236910942	0.7854390834762104	0.32910682254380574	0.34985870957394904	0.9911982429587667	0.23117120308550793	0.2412087815155946	1.0590625064052313	0.24845816369740614	0.2310754501546493	1.0989477466612518	0.2755054015912923	0.2959059976828733	1.124060951971482	0.11628780326044995	0.4997434835389299	0.5220514873725571	0.08900348058751675	0.4874098731850824	0.7757305158023838	0.11142643420915264	0.39060223508665237	1.0083128720679755	0.16429507354331968	0.339294678735024	1.0735650679607016	0.1628680160858196	0.337405097140384	1.1184733681951395	0.15874005828386195	0.37124566022615285	1.1423327268651347
386	6.771929824561403	0.3458691438642591	0.5720467151627516	0.944701982371863	0.35698213285772157	0.7080637256136593	1.3480171809158128	0.35605465659685603	0.8293268615653341	1.7456913245962533	0.3195599185621737	0.6444392952871207	1.8045709914931654	0.38387230107316006	0.6714408157868984	1.8077464131664762	0.3310385505988366	0.934298416996319	1.8007418363549017	0.15206620736665852	0.5884888036727047	0.9475506257217836	0.14602618978938925	0.7207236192741299	1.315216449245393	0.14110951598823818	0.824923181507339	1.69139869369724	0.14282413108203929	0.6431511581348347	1.790604357985019	0.09202299072934815	0.6995291922456374	1.7890201894882627	0.15296821411425227	0.889257792852949	1.7459527273328055	0.25719926948010513	0.45612839890722545	0.43737078053250034	0.26966556195044034	0.35464197758232546	0.20988384254567383	0.25106104338697244	0.32347526832295853	0.33654610888695735	0.3977334916448576	0.44969464729884556	0.5259955232722372	0.41235834625322687	0.4789600319137796	0.7855801162513029	0.3118425321401033	0.3428337331147943	0.9840546795301839	0.20760492285855445	0.2534466148073419	1.0445416168228228	0.21752587735838666	0.2510293610422134	1.085210106568664	0.2523102749024095	0.307322839777232	1.1227687875963155	0.1161090294922249	0.49881432139483894	0.5219310041882246	0.089431501312377	0.48841736243953376	0.7750394270459616	0.1273649500308751	0.3885783879971688	0.991587056295989	0.1786535625001828	0.3164357741606968	1.047170084444996	0.18310228626825975	0.3214259418564419	1.0902949168032106	0.18155264327888596	0.35358899579729397	1.123369413596111
387	6.789473684210527	0.3454286003470852	0.573227329045829	0.9430298950898591	0.35751242588781335	0.7083666532219008	1.3465078673298783	0.35649853093453465	0.8292832842541813	1.745051707008849	0.3185299166717343	0.6446653349469137	1.8063549327540422	0.3840667351298846	0.6715955674055297	1.8077470478565436	0.3309756075811244	0.9343300678762886	1.8006756960631185	0.15035645773886575	0.6011688929266512	0.94750741172885	0.14596215203070095	0.7206644315928046	1.3150042371274655	0.1413950785665714	0.8244500235679277	1.6902737727916244	0.14279390790498298	0.6477591238410042	1.7918206967143473	0.09092645446800941	0.7036355991768672	1.7903990749137801	0.15281052701080272	0.8892463246212007	1.7480601895479229	0.2563277723587611	0.45610241415487174	0.437407004500178	0.2683124959218356	0.3556112929239886	0.2109488399226824	0.2474752894275208	0.314801732080269	0.33630767757774493	0.39637891933080754	0.4494797563585313	0.5256843330498114	0.41208843497213027	0.47843734283942296	0.7857830661125014	0.30260672309428144	0.3333981579601091	0.9767286114773215	0.18838009943223863	0.2754576009527784	1.0376898647486026	0.19298336963172322	0.2761205958529093	1.0697637143893401	0.23816302608854606	0.31365872389173216	1.1178885885601466	0.11542275277650482	0.4960975874216239	0.5218279182387631	0.08918523047642613	0.48982875491379246	0.7753963200668205	0.1390075846850422	0.38135110103824843	0.976925426689342	0.18617785278216106	0.3013330123209925	1.031842596956309	0.19132924215464364	0.30855657814885035	1.064261094804564	0.19268648495907176	0.3432468764111713	1.0985332507079686
388	6.807017543859649	0.34497793514649905	0.5759139403327592	0.9415882301955617	0.3577639336079431	0.7085323864558658	1.3434700658152197	0.35671702378910075	0.8297286641107973	1.7448374561110223	0.31732151465030056	0.6445323870151758	1.8074882015809288	0.383967830478088	0.6720056025810799	1.807748703252622	0.3308964709761661	0.9346537864429955	1.800679388757686	0.1484133038947861	0.6076779155952641	0.9476868425184357	0.14564099655925275	0.720167599094027	1.3157381642147437	0.1414982575869613	0.8242663430807082	1.6897932643621103	0.14301563382881705	0.6514623081424814	1.7934649995809777	0.08947423263029011	0.7089895297710271	1.7921206242984145	0.1527825771666329	0.8891574409595742	1.7486440835648969	0.2547316115826513	0.45837733064067254	0.4372929794600321	0.26690665866891905	0.35625619596716185	0.21192494499121373	0.2441054177087903	0.3074417368569624	0.3361863278927919	0.39538701552918276	0.449551434712674	0.5257919648703213	0.41115352477621014	0.47782698182314864	0.7859556760820434	0.2983931419495794	0.32800676581560745	0.970188328595239	0.1755710222409646	0.29571289217876195	1.0359274177723066	0.1778793795675101	0.2971208293324268	1.0561513142209606	0.23237819272049826	0.31233433977034464	1.1050076287656878	0.11436988969751487	0.49239751609812077	0.5222158694926273	0.08840974032199615	0.4909124313652481	0.7758759639830264	0.15069262295800465	0.36431141269062817	0.9660948269028558	0.19172713874451625	0.28732562984239096	1.0260969696999191	0.19627399635058193	0.29734503255695943	1.047368607274962	0.19809677010494037	0.34006274162518235	1.0746713273219473
389	6.824561403508772	0.34463908474921257	0.5816860862169801	0.9421854204508244	0.3579628545744787	0.7089530215771335	1.340415808676333	0.35681918344182123	0.8298501331169554	1.7443742331672472	0.31689005032991474	0.644298239558855	1.8073758563215414	0.38386981063248105	0.6723220959602534	1.807715572431566	0.33076760676436057	0.9348902050546951	1.8005762029663643	0.145922820297035	0.609230151415238	0.9492622519085491	0.1450084847896409	0.7192542650387127	1.3176429330596369	0.14148520348860333	0.8242546571740836	1.6897646883394897	0.14315808039869388	0.653955733934193	1.7952890573424847	0.08833526328871359	0.7129333048599114	1.7933988313789913	0.15297705783242654	0.8887238214447091	1.7478902466431614	0.2527362041941778	0.45988116766449716	0.4372500428725603	0.26558954218532804	0.35545734584333116	0.21254375137947248	0.24137433845931103	0.3028908010341068	0.33609719236976787	0.39460470561297945	0.4485053119127407	0.5260317937303789	0.4100799635934924	0.47766264419490645	0.786067323144693	0.29590400559579033	0.328068940790559	0.9654491440950306	0.16996199782150362	0.30753814558442616	1.0348362513818423	0.1713776120204282	0.3092620469097763	1.0461777291612806	0.22967238615538277	0.3116705818092655	1.0862382470766723	0.11314849857160802	0.48969492752942906	0.5232247334336568	0.08747567268198743	0.49134415702065704	0.7757320575751924	0.16301458916021475	0.34121157524742735	0.9594164674613508	0.19927239723345944	0.27032293652969663	1.025438140056762	0.2050399541042924	0.2831056984054013	1.0390396939066013	0.20250513332820164	0.3388067240459714	1.057879217333999
390	6.842105263157895	0.3444200875147193	0.5896562629661278	0.9465115902513866	0.35815613448590417	0.7098538834183482	1.3388276049946133	0.35690448495936206	0.8296741714203519	1.7437244452246436	0.3175904513856584	0.6440134001641031	1.8057889586444875	0.3838551215126529	0.6724122836738774	1.807665464328689	0.3306231143733214	0.9348463431949912	1.8003679989681307	0.1433187681310918	0.6087818998265171	0.95200097987115	0.1440875949675074	0.7184018579464325	1.3195704989298946	0.1414488354003728	0.8243138446460483	1.6898641473606384	0.14288295556520628	0.6535102470783806	1.7960773605635922	0.08750282010660074	0.7143507704837879	1.7938922378878757	0.15321384765589488	0.8881988695514516	1.7467488575523693	0.25094952021072914	0.460081278882525	0.43730779407720155	0.26434653612659875	0.35258124972014226	0.21306993617037823	0.2394142934106162	0.3008681235754328	0.3357349337283459	0.39345122537066196	0.44541057893390956	0.5262899241416779	0.4093152993280447	0.4780724440506381	0.7861067303895376	0.294184387339804	0.330417184098875	0.9633908223187697	0.169106002345935	0.3114545465715715	1.031675876023903	0.16901846151708064	0.3145922970018779	1.0400685758158408	0.22416037005847536	0.3208707016987259	1.0692983026332037	0.11148582276404084	0.48888816559263143	0.524203402183608	0.08674598042645236	0.49136656724809114	0.7747077669727365	0.17256749572560132	0.3237766558473472	0.9562467274635164	0.20703164129834994	0.25605292060736573	1.0252822659659901	0.214766930714976	0.26764856396939785	1.0353358406670252	0.2052916860590856	0.3363649675378182	1.048727262338071
391	6.859649122807017	0.34439712827689956	0.5971182611478684	0.9525097675073155	0.35825565862443676	0.7106808042281735	1.3394912364814282	0.356950431303947	0.8295022481323799	1.7433329499560055	0.3189086220526758	0.6438421710624224	1.8035363072379935	0.3838680453447872	0.6723943614687686	1.8076238978011485	0.3305308199310834	0.9346686132869906	1.8001963990327967	0.14170984691538607	0.608158230564745	0.9544246409658097	0.14327927739005675	0.7181115990746767	1.3204700991839178	0.14142941375669552	0.8244112325152133	1.6899476438860512	0.14199685798492048	0.6495812405104111	1.7951255698287618	0.08636103654734606	0.7142868652422221	1.7939079940934302	0.1533385510655026	0.8879152655177814	1.7456168726679664	0.2498916451838198	0.45982643221782626	0.4373862825439785	0.2630201290275185	0.3486138868782565	0.2136257639728881	0.23747814897020203	0.29984265633639556	0.33527506191158346	0.3919575629215804	0.44117261013902415	0.5265041618242794	0.4089123650792189	0.4786729732220478	0.7861549620701979	0.2935473797166821	0.3320841852951498	0.9637015616345274	0.1700297507151901	0.31149521952739373	1.025677086032825	0.16715823843636782	0.317077120395988	1.037198739647754	0.21511944731042554	0.3386541942966948	1.0597110193579955	0.10919176847115268	0.48924391968415115	0.5241436350585709	0.08638536834454606	0.4913258098438123	0.7731565010170984	0.17696048873418904	0.32068787797287446	0.9550711700168646	0.21199602844893356	0.25087956564922476	1.0222531187206878	0.2195425024202749	0.25793754154506837	1.0333983359823018	0.20517430897481637	0.3335480662915952	1.0442160040594772
